<svg width="597" height="336" viewBox="0 0 597 336" fill="none" xmlns="http://www.w3.org/2000/svg">
<path d="M595.869 280.99H61.3005L1.38214 334.266" stroke="#27AE60" stroke-width="2.10526" stroke-linecap="round" stroke-linejoin="round"/>
<path d="M61.6356 243.69V140.102" stroke="#27AE60" stroke-width="2.10526" stroke-linecap="round" stroke-linejoin="round"/>
<path d="M61.6356 274.971V254.938" stroke="#27AE60" stroke-width="2.10526" stroke-linecap="round" stroke-linejoin="round"/>
<path d="M563.69 28.9744C563.69 28.9744 563.69 22.712 554.919 13.9568C546.149 5.20159 540.525 0.185593 540.525 0.185593C540.525 0.185593 536.132 14.58 544.279 23.3504C550.264 29.5285 556.757 35.1926 563.69 40.2832V28.9744Z" fill="#92E3A9"/>
<path d="M550.967 68.084C550.967 68.084 550.967 61.8216 542.197 53.0512C533.426 44.2808 527.802 39.28 527.802 39.28C527.802 39.28 523.425 53.6744 531.557 62.4448C537.548 68.6198 544.041 74.2884 550.967 79.3928V68.084Z" fill="#92E3A9"/>
<path d="M563.127 39.6448C563.127 39.6448 563.796 33.4128 573.433 25.6152C583.07 17.8176 589.21 13.4552 589.21 13.4552C589.21 13.4552 592.038 28.2752 583.024 36.088C576.42 41.5862 569.368 46.5231 561.942 50.8472L563.127 39.6448Z" fill="#92E3A9"/>
<path d="M547.76 85.8224C547.76 85.8224 549.082 79.7424 559.479 72.9632C569.876 66.184 576.427 62.5056 576.427 62.5056C576.427 62.5056 577.689 77.508 567.945 84.3784C560.804 89.1518 553.274 93.316 545.434 96.8272L547.76 85.8224Z" fill="#92E3A9"/>
<path d="M550.663 136.15C550.663 136.15 550.663 129.887 559.418 121.132C568.173 112.377 573.812 107.361 573.812 107.361C573.812 107.361 578.205 121.77 570.058 130.526C564.083 136.712 557.595 142.382 550.663 147.474V136.15Z" fill="#92E3A9"/>
<path d="M550.511 148.446C550.511 148.446 551.393 142.245 543.96 132.334C536.527 122.424 531.678 116.648 531.678 116.648C531.678 116.648 525.325 130.328 532.119 140.117C537.17 147.069 542.793 153.588 548.93 159.603L550.511 148.446Z" fill="#92E3A9"/>
<path d="M541.863 184.85C541.863 184.85 541.863 178.603 550.633 169.833C559.404 161.062 565.028 156.153 565.028 156.153C565.028 156.153 569.421 170.547 561.273 179.302C555.29 185.486 548.797 191.155 541.863 196.25V184.85Z" fill="#92E3A9"/>
<path d="M547.714 217.88C547.714 217.88 546.194 211.8 552.411 201.16C558.628 190.52 562.853 184.212 562.853 184.212C562.853 184.212 570.727 197.041 565.088 207.574C560.857 215.061 556.007 222.179 550.587 228.854L547.714 217.88Z" fill="#92E3A9"/>
<path d="M564.48 27.424C564.037 33.9384 563.236 40.4235 562.078 46.8496C558.613 64.7552 549.918 76.3072 546.483 92.4496C543.048 108.592 552.974 129.462 550.314 150.21C547.654 170.958 539.552 182.525 541.832 196.387C544.112 210.25 556.272 247.763 556.272 247.763" stroke="#263238" stroke-width="1.78978" stroke-linecap="round" stroke-linejoin="round"/>
<path d="M563.052 43.8096L572.491 36.544" stroke="#263238" stroke-width="1.78978" stroke-linecap="round" stroke-linejoin="round"/>
<path d="M563.477 35.4648L559.54 28.4272" stroke="#263238" stroke-width="1.78978" stroke-linecap="round" stroke-linejoin="round"/>
<path d="M547.015 91.72C547.015 91.72 554.919 85.7768 563.051 79.8488" stroke="#263238" stroke-width="1.78978" stroke-linecap="round" stroke-linejoin="round"/>
<path d="M550.967 79.3168C550.967 79.3168 544.37 66.3968 536.907 57.824" stroke="#263238" stroke-width="1.78978" stroke-linecap="round" stroke-linejoin="round"/>
<path d="M550.968 145.057C555.496 136.74 561.205 129.121 567.916 122.439" stroke="#263238" stroke-width="1.78978" stroke-linecap="round" stroke-linejoin="round"/>
<path d="M549.432 153.842C547.008 148.187 544.12 142.742 540.798 137.563C536.238 130.754 535.509 129.872 535.509 129.872" stroke="#263238" stroke-width="1.78978" stroke-linecap="round" stroke-linejoin="round"/>
<path d="M541.863 196.372C543.87 191.395 546.253 186.578 548.992 181.962C551.726 177.665 554.807 173.598 558.203 169.802" stroke="#263238" stroke-width="1.78978" stroke-linecap="round" stroke-linejoin="round"/>
<path d="M550.571 228.778C550.113 224.029 550.932 219.243 552.943 214.916C556.241 208.547 559.965 200.187 561.516 196.904" stroke="#263238" stroke-width="1.78978" stroke-linecap="round" stroke-linejoin="round"/>
<path d="M506.295 112.605C506.295 112.605 505.611 108.698 510.155 102.238C514.7 95.7784 517.755 92.024 517.755 92.024C517.755 92.024 522.057 100.566 517.907 106.95C514.825 111.468 511.367 115.719 507.572 119.658L506.295 112.605Z" fill="#92E3A9"/>
<path d="M518.516 135.8C518.516 135.8 517.832 131.863 522.376 125.418C526.921 118.974 529.976 115.219 529.976 115.219C529.976 115.219 534.278 123.777 530.128 130.146C527.049 134.667 523.592 138.918 519.792 142.853L518.516 135.8Z" fill="#92E3A9"/>
<path d="M507.799 119.232C507.799 119.232 506.735 115.402 499.819 111.632C492.903 107.862 488.602 105.704 488.602 105.704C488.602 105.704 488.434 115.234 494.955 119.232C499.691 121.964 504.649 124.293 509.775 126.194L507.799 119.232Z" fill="#92E3A9"/>
<path d="M522.452 146.516C522.452 146.516 520.932 142.822 513.697 139.737C506.462 136.651 501.917 135.025 501.917 135.025C501.917 135.025 502.753 144.555 509.639 147.808C514.638 150.025 519.814 151.82 525.112 153.174L522.452 146.516Z" fill="#92E3A9"/>
<path d="M526.1 178.36C526.1 178.36 525.416 174.438 518.972 169.894C512.527 165.349 508.438 162.81 508.438 162.81C508.438 162.81 507.252 172.341 513.317 176.931C517.737 180.142 522.42 182.974 527.316 185.398L526.1 178.36Z" fill="#92E3A9"/>
<path d="M527.514 186.097C527.514 186.097 526.282 182.312 529.87 175.29C533.457 168.267 535.95 164.118 535.95 164.118C535.95 164.118 541.422 171.961 538.23 178.877C535.796 183.785 532.959 188.483 529.748 192.922L527.514 186.097Z" fill="#92E3A9"/>
<path d="M538.518 217.758C538.518 217.758 538.974 213.806 545.145 208.897C551.317 203.987 555.253 201.297 555.253 201.297C555.253 201.297 556.986 210.721 551.195 215.676C546.965 219.135 542.456 222.236 537.713 224.948L538.518 217.758Z" fill="#92E3A9"/>
<path d="M536.892 208C536.892 208 536.208 204.063 529.764 199.518C523.319 194.974 519.245 192.45 519.245 192.45C519.245 192.45 518.06 201.981 524.109 206.571C528.536 209.78 533.224 212.612 538.124 215.038L536.892 208Z" fill="#92E3A9"/>
<path d="M536.801 229.341C536.801 229.341 537.15 225.358 532.058 219.339C526.966 213.32 523.668 209.809 523.668 209.809C523.668 209.809 520.111 218.701 524.808 224.705C528.277 228.939 532.09 232.879 536.208 236.485L536.801 229.341Z" fill="#92E3A9"/>
<path d="M505.611 111.693C506.6 115.734 507.813 119.718 509.244 123.625C513.348 134.462 520.036 140.77 523.957 150.529C527.879 160.287 523.957 174.438 527.833 187.161C531.709 199.883 538.093 206.222 538.139 215.205C538.185 224.188 534.719 249.01 534.719 249.01" stroke="#263238" stroke-width="1.78978" stroke-linecap="round" stroke-linejoin="round"/>
<path d="M508.301 121.831L501.598 118.32" stroke="#263238" stroke-width="1.78978" stroke-linecap="round" stroke-linejoin="round"/>
<path d="M507.115 116.648L508.832 111.814" stroke="#263238" stroke-width="1.78978" stroke-linecap="round" stroke-linejoin="round"/>
<path d="M523.562 150.118C523.562 150.118 517.953 147.261 512.223 144.418" stroke="#263238" stroke-width="1.78978" stroke-linecap="round" stroke-linejoin="round"/>
<path d="M519.732 142.853C521.38 137.65 523.555 132.628 526.222 127.866" stroke="#263238" stroke-width="1.78978" stroke-linecap="round" stroke-linejoin="round"/>
<path d="M526.875 184.014C523.135 179.292 518.732 175.135 513.803 171.672" stroke="#263238" stroke-width="1.78978" stroke-linecap="round" stroke-linejoin="round"/>
<path d="M528.791 189.365C529.679 185.567 530.884 181.85 532.393 178.254C534.506 173.466 534.871 172.842 534.871 172.842" stroke="#263238" stroke-width="1.78978" stroke-linecap="round" stroke-linejoin="round"/>
<path d="M537.85 221.984C540.025 219.282 542.436 216.78 545.055 214.506C546.722 213.27 548.288 211.903 549.736 210.417" stroke="#263238" stroke-width="1.78978" stroke-linecap="round" stroke-linejoin="round"/>
<path d="M538.139 215.205C536.322 212.305 534.29 209.546 532.059 206.951C529.876 204.567 527.502 202.366 524.96 200.37" stroke="#263238" stroke-width="1.78978" stroke-linecap="round" stroke-linejoin="round"/>
<path d="M536.238 236.485C535.997 233.442 534.947 230.52 533.198 228.018C530.432 224.37 527.118 219.537 525.872 217.637" stroke="#263238" stroke-width="1.78978" stroke-linecap="round" stroke-linejoin="round"/>
<path d="M565.392 291.813H525.477C524.684 291.813 523.922 291.503 523.354 290.949C522.786 290.396 522.457 289.642 522.437 288.849L516.707 244.678H574.041L568.311 288.849C568.292 289.621 567.98 290.358 567.438 290.908C566.896 291.459 566.164 291.782 565.392 291.813Z" fill="#263238"/>
<path d="M573.585 252.141H516.767C515.584 252.145 514.448 251.68 513.608 250.848C512.767 250.016 512.291 248.885 512.283 247.702C512.302 246.522 512.779 245.395 513.612 244.559C514.446 243.722 515.571 243.242 516.752 243.218H573.585C574.173 243.216 574.755 243.331 575.299 243.554C575.843 243.778 576.338 244.107 576.754 244.522C577.171 244.937 577.501 245.43 577.727 245.974C577.952 246.517 578.069 247.099 578.069 247.687C578.067 248.274 577.949 248.855 577.723 249.396C577.496 249.938 577.165 250.429 576.749 250.843C576.333 251.256 575.839 251.584 575.296 251.806C574.753 252.029 574.171 252.143 573.585 252.141Z" fill="#263238"/>
</svg>
